<?xml version="1.0" encoding="utf-8"?>
<!-- Generator: Adobe Illustrator 16.0.0, SVG Export Plug-In . SVG Version: 6.00 Build 0)  -->
<!DOCTYPE svg PUBLIC "-//W3C//DTD SVG 1.1//EN" "http://www.w3.org/Graphics/SVG/1.1/DTD/svg11.dtd">
<svg version="1.1" id="Layer_1" xmlns="http://www.w3.org/2000/svg" xmlns:xlink="http://www.w3.org/1999/xlink" x="0px" y="0px"
	 width="512px" height="512px" viewBox="0 0 512 512" enable-background="new 0 0 512 512" xml:space="preserve">
<path d="M-612,320v96h96v-96H-612z M-529,403h-70v-70h70V403z"/>
<path d="M425.286,143.511c-55.98-52.879-134.686-66.907-203.207-42.737l55.324-55.324c7.92,5.52,19.848,5.017,27.339-2.475
	c8.351-8.351,8.266-21.974-0.085-30.323c-8.35-8.351-21.93-8.394-30.28-0.043c-7.492,7.492-8.299,19.115-2.35,27.465l-67.201,67.201
	c-7.199,3.298-14.222,7.029-20.922,11.081l-22.63-22.631l-60.479,60.479l21.394,21.394c-5.916,8.867-11.437,18.523-15.858,28.174
	l-66.563,66.562c-8.35-5.95-20.015-5.185-27.506,2.308c-8.351,8.35-8.351,21.888,0,30.238s22.057,8.519,30.406,0.168
	c7.491-7.491,7.995-19.418,2.475-27.338l54.685-54.684c-24.661,67.668-9.89,146.974,42.089,202.511L122.3,445.155l60.478,60.478
	l60.479-60.478l-60.479-60.479l-23.839,23.838c-54.987-59.249-61.917-147.225-19.875-214.043l22.211,22.211l60.478-60.479
	l-21.107-21.107c65.694-37.791,151.311-29.801,208.89,24.168l-24.49,24.49l60.478,60.479L506,183.754l-60.479-60.479
	L425.286,143.511z M227.128,445.155l-44.351,44.351l-43.679-43.679l44.351-44.351L227.128,445.155z M489.872,183.754l-44.351,44.351
	l-44.351-44.351l44.351-44.351L489.872,183.754z"/>
</svg>
